<?xml version="1.0" encoding="UTF-8"?>
<svg width="188px" height="66px" viewBox="0 0 188 66" version="1.1" xmlns="http://www.w3.org/2000/svg" xmlns:xlink="http://www.w3.org/1999/xlink">
    <!-- Generator: Sketch 61.1 (89650) - https://sketch.com -->
    <title>Artboard</title>
    <desc>Created with Sketch.</desc>
    <g id="Artboard" stroke="none" stroke-width="1" fill="none" fill-rule="evenodd">
        <g id="noun_Duck_2094703" fill="#000000" fill-rule="nonzero">
            <path d="M58.22716,25.004763 C57.310994,26.348253 56.195933,27.544219 54.924473,28.550811 C60.263406,32.456523 63,37.653792 63,44 C63,56.651837 51.659606,66 32,66 C21.819673,66 13.611637,63.382211 7.868326,58.743382 C2.819747,54.665684 0,49.195374 0,44 C0,37.895917 2.139312,31.834533 6.366064,25.846634 C7.378844,24.411863 9.616739,24.885658 9.961161,26.607768 C11.072083,32.162376 16.179806,35 26,35 C30.870335,35 34.49751,33.323684 37.057788,29.893595 C32.160814,27.092977 29,21.842559 29,16 C29,7.163444 36.163444,0 45,0 C52.502284,0 58.892638,5.192424 60.571375,12.305857 L63.271236,12.64334 C65.972724,12.981026 68,15.277488 68,18 C68,20.680856 66.175456,23.017689 63.574644,23.667892 L58.22716,25.004763 Z M4,44 C4,47.939626 6.241054,52.287271 10.381674,55.631618 C15.376624,59.666 22.694844,62 32,62 C49.602689,62 59,54.253568 59,44 C59,38.386724 56.380474,34.020848 50.9571,30.706564 C50.362588,30.343251 50,29.696727 50,29 L50,28.127038 C50,27.413109 50.380571,26.753318 50.998551,26.395836 C52.746375,25.384774 54.217546,23.944197 55.265676,22.218132 C55.539083,21.767884 55.979079,21.443678 56.490109,21.31592 L62.604501,19.787322 C63.424645,19.582286 64,18.845385 64,18 C64,17.294781 63.47487,16.699923 62.775097,16.612452 L58.62533,16.093731 C57.724713,15.981154 57.012818,15.276231 56.891382,14.376765 C56.093284,8.465317 51.023629,4 45,4 C38.372583,4 33,9.372583 33,16 C33,21.004367 36.091572,25.429588 40.682944,27.200604 C41.816185,27.637726 42.301355,28.975801 41.711624,30.037652 C38.415743,35.972105 33.086498,39 26,39 C16.714231,39 10.434339,36.509202 7.535803,31.464313 C5.16998,35.679957 4,39.853403 4,44 Z M37.717157,52.020101 C38.810625,51.863891 39.823689,52.623689 39.979899,53.717157 C40.136109,54.810625 39.376311,55.823689 38.282843,55.979899 C29.670808,57.21019 23.571563,54.953758 20.464047,49.104248 C19.42764,47.153318 20.168997,44.731601 22.119923,43.695184 C22.739723,43.365919 23.435247,43.205526 24.136648,43.230112 C28.325947,43.376958 31.59572,42.710383 33.970905,41.285076 C34.918031,40.716723 36.14657,41.023779 36.714924,41.970905 C37.283277,42.918031 36.976221,44.14657 36.029095,44.714924 C32.920658,46.580242 28.901488,47.399589 23.996524,47.227652 C26.213084,51.400051 30.62698,53.032983 37.717157,52.020101 Z M49.5,15 C48.119288,15 47,13.880712 47,12.5 C47,11.119288 48.119288,10 49.5,10 C50.880712,10 52,11.119288 52,12.5 C52,13.880712 50.880712,15 49.5,15 Z" id="Shape"></path>
        </g>
        <text id="Gym-Duck" font-family="Montserrat-Bold, Montserrat" font-size="20" font-weight="bold" fill="#000000" fill-opacity="0.85">
            <tspan x="78" y="40">Gym Duck</tspan>
        </text>
    </g>
</svg>