<?xml version="1.0" encoding="UTF-8"?>
<svg width="143px" height="27px" viewBox="0 0 143 27" version="1.1" xmlns="http://www.w3.org/2000/svg" xmlns:xlink="http://www.w3.org/1999/xlink">
    <!-- Generator: Sketch 61.1 (89650) - https://sketch.com -->
    <title>Artboard</title>
    <desc>Created with Sketch.</desc>
    <g id="Artboard" stroke="none" stroke-width="1" fill="none" fill-rule="evenodd">
        <g id="noun_Duck_2094703" fill="#222222" fill-rule="nonzero">
            <path d="M23.9758894,10.2292212 C23.5986446,10.7788308 23.1395018,11.2680896 22.6159595,11.6798772 C24.8143436,13.2776685 25.9411765,15.403824 25.9411765,18 C25.9411765,23.1757515 21.2716025,27 13.1764706,27 C8.98457124,27 5.60479171,25.9290863 3.23989894,24.0313835 C1.16107229,22.3632344 0,20.1253803 0,18 C0,15.5028751 0.880893176,13.023218 2.62132047,10.573623 C3.03834753,9.98667123 3.95983371,10.1804965 4.10165453,10.884996 C4.559093,13.1573356 6.66227306,14.3181818 10.7058824,14.3181818 C12.7113144,14.3181818 14.2048571,13.6324162 15.2590892,12.229198 C13.2426881,11.0834906 11.9411765,8.93559232 11.9411765,6.54545455 C11.9411765,2.93049982 14.8908299,0 18.5294118,0 C21.6185875,0 24.2499098,2.12417345 24.9411544,5.03421423 L26.0528619,5.17227545 C27.1652393,5.31041973 28,6.24988145 28,7.36363636 C28,8.46035018 27.2487172,9.41632732 26.1777946,9.68231945 L23.9758894,10.2292212 Z M1.64705882,18 C1.64705882,19.6116652 2.56984576,21.3902472 4.27480694,22.7583892 C6.33155106,24.4088182 9.34493576,25.3636364 13.1764706,25.3636364 C20.4246366,25.3636364 24.2941176,22.1946415 24.2941176,18 C24.2941176,15.7036598 23.2154893,13.9176196 20.9823353,12.5617762 C20.7375362,12.4131481 20.5882341,12.148661 20.5882353,11.8636327 L20.5882369,11.5065155 C20.5882382,11.2144537 20.744941,10.9445392 20.9994034,10.7982965 C21.7190956,10.3846803 22.3248719,9.79535332 22.7564548,9.08923582 C22.8690342,8.90504345 23.050209,8.77241373 23.2606331,8.72014909 L25.7783239,8.09481355 C26.1160303,8.01093518 26.3529412,7.70947568 26.3529412,7.36363636 C26.3529412,7.07513768 26.1367112,6.83178668 25.8485694,6.79600309 L24.1398418,6.58379905 C23.7689995,6.53774482 23.4758662,6.24936723 23.4258632,5.88140386 C23.0972346,3.46308423 21.0097296,1.63636364 18.5294118,1.63636364 C15.8004754,1.63636364 13.5882353,3.8342385 13.5882353,6.54545455 C13.5882353,8.59269559 14.8612355,10.4030133 16.7518005,11.1275198 C17.2184291,11.3063425 17.418205,11.8537368 17.1753746,12.2881304 C15.8182471,14.7158611 13.6238521,15.9545455 10.7058824,15.9545455 C6.88233041,15.9545455 4.29649253,14.9355826 3.10297771,12.8717644 C2.12881529,14.596346 1.64705882,16.3036649 1.64705882,18 Z M15.5305941,21.2809504 C15.9808456,21.2170463 16.3979896,21.5278728 16.4623114,21.9752006 C16.5266331,22.4225284 16.2137751,22.8369637 15.7635236,22.9008678 C12.2173915,23.4041686 9.70593771,22.4810828 8.42637229,20.0881015 C7.99961647,19.2899937 8.30488112,18.2992913 9.10820359,17.8753025 C9.36341535,17.7406032 9.64980759,17.6749879 9.93861976,17.6850458 C11.6636252,17.7451192 13.0100024,17.4724294 13.9880197,16.8893493 C14.3780128,16.6568412 14.8838818,16.782455 15.1179099,17.1699157 C15.3519376,17.5573763 15.2255028,18.0599605 14.8355097,18.2924689 C13.5555651,19.0555535 11.9006127,19.390741 9.88092165,19.3204031 C10.7936228,21.0272936 12.6111094,21.6953112 15.5305941,21.2809504 Z M20.3823529,6.13636364 C19.8138245,6.13636364 19.3529412,5.67847309 19.3529412,5.11363636 C19.3529412,4.54879964 19.8138245,4.09090909 20.3823529,4.09090909 C20.9508814,4.09090909 21.4117647,4.54879964 21.4117647,5.11363636 C21.4117647,5.67847309 20.9508814,6.13636364 20.3823529,6.13636364 Z" id="Shape"></path>
        </g>
        <text id="Gym-Duck" font-family="Montserrat-Bold, Montserrat" font-size="20" font-weight="bold" fill="#222222">
            <tspan x="33" y="22">Gym Duck</tspan>
        </text>
    </g>
</svg>